<svg viewBox="0 0 43.725 52.054" xmlns="http://www.w3.org/2000/svg">
  <path d="M-23.95-133.35h192.76V59.41H-23.95z" clip-rule="evenodd" fill="none"/>
  <path d="M1.488.663h41.339v40.01c-.194 5.872-5.27 7.068-13.618 9.035-2.198.519-4.632 1.092-7.223 1.809l-.162.045-.163-.045-.01-.003c-2.584-.713-5.011-1.285-7.205-1.801-8.371-1.97-13.444-3.165-13.57-9.048V.664zm40.117 1.222H2.099v38.756c.106 4.936 4.83 6.048 12.625 7.883 2.139.503 4.501 1.06 7.1 1.773 2.603-.716 4.968-1.273 7.11-1.778 7.778-1.833 12.508-2.948 12.671-7.886V1.886z"/>
  <path d="M18.672 49.435c-1.622-.407-4.303-1.07-5.957-1.474-1.655-.403-3.645-.94-4.424-1.195-3.434-1.122-5.239-2.494-5.839-4.437-.232-.752-.236-1.092-.236-20.57V1.953h39.282V21.7c0 19.333-.005 19.762-.233 20.501-.472 1.529-1.465 2.576-3.33 3.515-1.673.842-3.568 1.415-9.177 2.776-2.757.67-5.41 1.328-5.896 1.463-.485.135-.963.24-1.062.233-.098-.006-1.506-.345-3.128-.753z" fill="#fff" stroke="#fff" stroke-width="1.23366551" paint-order="stroke fill markers"/>
  <g clip-rule="evenodd" fill-rule="evenodd" stroke-width="3.453">
    <path d="M3.898 13.829h16.92v13.724H3.898z" fill="#ee2c27"/>
    <path d="M22.808 13.829h16.92v13.724h-16.92zM3.898 29.452h16.92v18.874c-9.576-2.851-16.452-2.851-16.92-7.702z"/>
    <path d="M39.727 29.452h-16.92v18.874c9.512-2.851 16.314-2.851 16.92-7.702z" fill="#ee2c27"/>
    <path d="M5.522 11.19 4.017 4.38h1.491l.874 4.355.863-4.356h1.18L6.967 11.19zm4.022 0V4.4h1.444v6.791zm2.903 0V4.38h1.336v2.81l1.28-2.81h1.304l-1.194 2.495 1.471 4.315h-1.58l-.793-2.574-.488.992v1.582h-1.336zm5.878 0V6.033h-.977V4.38h3.295v1.654h-.948v5.157zm4.815-3.367c0 1.28.235 1.921.705 1.921.466 0 .7-.647.7-1.94 0-.599-.06-1.077-.178-1.434s-.293-.536-.522-.536c-.203 0-.372.15-.506.45-.132.301-.2.814-.2 1.54v-.001zm-1.527 0c0-.543.056-1.03.168-1.46.113-.43.265-.802.455-1.113.393-.619.93-.94 1.609-.96.324 0 .623.079.896.237.273.16.51.391.708.695.199.303.352.674.46 1.108.107.436.162.929.162 1.474 0 .574-.062 1.082-.184 1.525-.123.442-.29.81-.499 1.098-.21.29-.448.507-.713.648a1.75 1.75 0 0 1-.83.214 1.836 1.836 0 0 1-1.097-.403c-.34-.26-.614-.653-.822-1.175-.208-.523-.313-1.153-.313-1.888zm5.676-3.444h2.461c.347 0 .647.085.898.255.251.17.443.409.573.715a2.912 2.912 0 0 1 .124 1.8 2.025 2.025 0 0 1-.276.648 1.244 1.244 0 0 1-.472.433l.849 2.96h-1.588l-.706-2.612h-.419v2.612H27.29zm1.444 1.455v1.298h.684a.442.442 0 0 0 .383-.185.76.76 0 0 0 .134-.46.756.756 0 0 0-.142-.458.455.455 0 0 0-.388-.195h-.67zm3.926 5.356V4.4h1.443v6.791zm2.594 0 1.473-6.821h1.492l1.458 6.821h-1.458l-.278-1.336h-1.243l-.265 1.336zm2.449-2.82-.374-1.95-.379 1.95z"/>
  </g>
</svg>
